<svg width="1437" height="219" viewBox="0 0 1437 219" fill="none" xmlns="http://www.w3.org/2000/svg">
<g filter="url(#filter0_d_95_21)">
<path d="M0 42.6444L34.2036 31.5511C68.3323 20.5526 136.74 -1.63411 205.222 0.262186C273.704 2.15848 342.26 28.1377 410.742 36.2918C479.225 44.5407 547.632 35.0592 615.964 24.44C684.296 13.9155 752.704 2.15851 821.036 9.64888C889.368 17.0444 957.775 43.5926 1026.26 55.6341C1094.74 67.5807 1163.3 65.1155 1231.78 65.2103C1300.26 65.4 1368.67 68.2444 1402.8 69.6666L1437 71.0889V219.948H1402.8C1368.67 219.948 1300.26 219.948 1231.78 219.948C1163.3 219.948 1094.74 219.948 1026.26 219.948C957.775 219.948 889.368 219.948 821.036 219.948C752.704 219.948 684.296 219.948 615.964 219.948C547.632 219.948 479.225 219.948 410.742 219.948C342.26 219.948 273.704 219.948 205.222 219.948C136.74 219.948 68.3323 219.948 34.2036 219.948H0V42.6444Z" fill="#F67280"/>
<path d="M0 72.9853L34.2036 68.0549C68.3323 63.2193 136.74 53.3586 205.222 49.4712C273.704 45.489 342.26 47.3853 410.742 52.3156C479.225 57.1512 547.632 65.1156 615.964 68.4342C684.296 71.7527 752.704 70.4253 821.036 75.0712C889.368 79.6223 957.775 90.0519 1026.26 83.4149C1094.74 76.7779 1163.3 53.0742 1231.78 40.7482C1300.26 28.4223 1368.67 27.4741 1402.8 27.0001L1437 26.526V219.948H1402.8C1368.67 219.948 1300.26 219.948 1231.78 219.948C1163.3 219.948 1094.74 219.948 1026.26 219.948C957.775 219.948 889.368 219.948 821.036 219.948C752.704 219.948 684.296 219.948 615.964 219.948C547.632 219.948 479.225 219.948 410.742 219.948C342.26 219.948 273.704 219.948 205.222 219.948C136.74 219.948 68.3323 219.948 34.2036 219.948H0V72.9853Z" fill="#E57083"/>
<path d="M0 145.044L34.2036 141.536C68.3323 138.123 136.74 131.107 205.222 119.444C273.704 107.782 342.26 91.2845 410.742 93.3704C479.225 95.4563 547.632 115.936 615.964 126.84C684.296 137.744 752.704 139.071 821.036 133.951C889.368 128.926 957.775 117.548 1026.26 114.23C1094.74 110.911 1163.3 115.652 1231.78 114.514C1300.26 113.471 1368.67 106.455 1402.8 103.042L1437 99.5334V219.948H1402.8C1368.67 219.948 1300.26 219.948 1231.78 219.948C1163.3 219.948 1094.74 219.948 1026.26 219.948C957.775 219.948 889.368 219.948 821.036 219.948C752.704 219.948 684.296 219.948 615.964 219.948C547.632 219.948 479.225 219.948 410.742 219.948C342.26 219.948 273.704 219.948 205.222 219.948C136.74 219.948 68.3323 219.948 34.2036 219.948H0V145.044Z" fill="#D36E84"/>
<path d="M0 178.23L34.2036 177.756C68.3323 177.281 136.74 176.333 205.222 169.222C273.704 162.111 342.26 148.837 410.742 143.622C479.225 138.407 547.632 141.252 615.964 139.83C684.296 138.407 752.704 132.718 821.036 132.529C889.368 132.434 957.775 137.744 1026.26 138.692C1094.74 139.64 1163.3 136.227 1231.78 143.433C1300.26 150.733 1368.67 168.748 1402.8 177.756L1437 186.763V219.948H1402.8C1368.67 219.948 1300.26 219.948 1231.78 219.948C1163.3 219.948 1094.74 219.948 1026.26 219.948C957.775 219.948 889.368 219.948 821.036 219.948C752.704 219.948 684.296 219.948 615.964 219.948C547.632 219.948 479.225 219.948 410.742 219.948C342.26 219.948 273.704 219.948 205.222 219.948C136.74 219.948 68.3323 219.948 34.2036 219.948H0V178.23Z" fill="#C06C84"/>
</g>
<defs>
<filter id="filter0_d_95_21" x="-4" y="0.147949" width="1445" height="227.8" filterUnits="userSpaceOnUse" color-interpolation-filters="sRGB">
<feFlood flood-opacity="0" result="BackgroundImageFix"/>
<feColorMatrix in="SourceAlpha" type="matrix" values="0 0 0 0 0 0 0 0 0 0 0 0 0 0 0 0 0 0 127 0" result="hardAlpha"/>
<feOffset dy="4"/>
<feGaussianBlur stdDeviation="2"/>
<feComposite in2="hardAlpha" operator="out"/>
<feColorMatrix type="matrix" values="0 0 0 0 0 0 0 0 0 0 0 0 0 0 0 0 0 0 0.25 0"/>
<feBlend mode="normal" in2="BackgroundImageFix" result="effect1_dropShadow_95_21"/>
<feBlend mode="normal" in="SourceGraphic" in2="effect1_dropShadow_95_21" result="shape"/>
</filter>
</defs>
</svg>
