<svg id="visual" viewBox="0 0 1920 1080" width="1920" height="1080" xmlns="http://www.w3.org/2000/svg" xmlns:xlink="http://www.w3.org/1999/xlink" version="1.1"><rect x="0" y="0" width="1920" height="1080" fill="#ffffff"></rect><path d="M0 894L45.7 882.3C91.3 870.7 182.7 847.3 274.2 849.3C365.7 851.3 457.3 878.7 548.8 887.3C640.3 896 731.7 886 823 874.8C914.3 863.7 1005.7 851.3 1097 859.2C1188.3 867 1279.7 895 1371.2 907.7C1462.7 920.3 1554.3 917.7 1645.8 917.8C1737.3 918 1828.7 921 1874.3 922.5L1920 924L1920 1081L1874.3 1081C1828.7 1081 1737.3 1081 1645.8 1081C1554.3 1081 1462.7 1081 1371.2 1081C1279.7 1081 1188.3 1081 1097 1081C1005.7 1081 914.3 1081 823 1081C731.7 1081 640.3 1081 548.8 1081C457.3 1081 365.7 1081 274.2 1081C182.7 1081 91.3 1081 45.7 1081L0 1081Z" fill="#f67280"></path><path d="M0 926L45.7 920.8C91.3 915.7 182.7 905.3 274.2 901.2C365.7 897 457.3 899 548.8 904.2C640.3 909.3 731.7 917.7 823 921.2C914.3 924.7 1005.7 923.3 1097 928.2C1188.3 933 1279.7 944 1371.2 937C1462.7 930 1554.3 905 1645.8 892C1737.3 879 1828.7 878 1874.3 877.5L1920 877L1920 1081L1874.3 1081C1828.7 1081 1737.3 1081 1645.8 1081C1554.3 1081 1462.7 1081 1371.2 1081C1279.7 1081 1188.3 1081 1097 1081C1005.7 1081 914.3 1081 823 1081C731.7 1081 640.3 1081 548.8 1081C457.3 1081 365.7 1081 274.2 1081C182.7 1081 91.3 1081 45.7 1081L0 1081Z" fill="#e57083"></path><path d="M0 1002L45.7 998.3C91.3 994.7 182.7 987.3 274.2 975C365.7 962.7 457.3 945.3 548.8 947.5C640.3 949.7 731.7 971.3 823 982.8C914.3 994.3 1005.7 995.7 1097 990.3C1188.3 985 1279.7 973 1371.2 969.5C1462.7 966 1554.3 971 1645.8 969.8C1737.3 968.7 1828.7 961.3 1874.3 957.7L1920 954L1920 1081L1874.3 1081C1828.7 1081 1737.3 1081 1645.8 1081C1554.3 1081 1462.7 1081 1371.2 1081C1279.7 1081 1188.3 1081 1097 1081C1005.7 1081 914.3 1081 823 1081C731.7 1081 640.3 1081 548.8 1081C457.3 1081 365.7 1081 274.2 1081C182.7 1081 91.3 1081 45.7 1081L0 1081Z" fill="#d36e84"></path><path d="M0 1037L45.7 1036.5C91.3 1036 182.7 1035 274.2 1027.5C365.7 1020 457.3 1006 548.8 1000.5C640.3 995 731.7 998 823 996.5C914.3 995 1005.7 989 1097 988.8C1188.3 988.7 1279.7 994.3 1371.2 995.3C1462.7 996.3 1554.3 992.7 1645.8 1000.3C1737.3 1008 1828.7 1027 1874.3 1036.5L1920 1046L1920 1081L1874.3 1081C1828.7 1081 1737.3 1081 1645.8 1081C1554.3 1081 1462.7 1081 1371.2 1081C1279.7 1081 1188.3 1081 1097 1081C1005.7 1081 914.3 1081 823 1081C731.7 1081 640.3 1081 548.8 1081C457.3 1081 365.7 1081 274.2 1081C182.7 1081 91.3 1081 45.7 1081L0 1081Z" fill="#c06c84"></path></svg>